<?xml version="1.0" encoding="UTF-8"?>
<!DOCTYPE svg PUBLIC "-//W3C//DTD SVG 1.1//EN" "http://www.w3.org/Graphics/SVG/1.1/DTD/svg11.dtd">
<svg x="0px" y="0px" viewBox="0 0 24 24" width="24" height="24" style="enable-background:new 0 0 24 24;" xml:space="preserve" id="svg2" inkscape:version="0.91 r13725" sodipodi:docname="Q483453_noun_545912_cc-icon54_fountain.svg" xmlns:dc="http://purl.org/dc/elements/1.1/" xmlns:cc="http://creativecommons.org/ns#" xmlns:rdf="http://www.w3.org/1999/02/22-rdf-syntax-ns#" xmlns:svg="http://www.w3.org/2000/svg" xmlns="http://www.w3.org/2000/svg" xmlns:sodipodi="http://sodipodi.sourceforge.net/DTD/sodipodi-0.dtd" xmlns:inkscape="http://www.inkscape.org/namespaces/inkscape" version="1.1">
    <rect width="100%" height="100%" fill="hsl(228, 100%, 76%)" />
    <path fill="black" d="m 13.33,11.164 c 0.059,0.022 0.12,0.033 0.18,0.033 0.201,0 0.39,-0.122 0.467,-0.32 0.209,-0.544 0.482,-1.061 0.812,-1.535 0.158,-0.227 0.101,-0.539 -0.125,-0.696 -0.227,-0.158 -0.538,-0.101 -0.696,0.125 -0.375,0.54 -0.686,1.127 -0.924,1.746 -0.101,0.258 0.028,0.548 0.286,0.647 z m 2.292,-2.983 c 0.114,0 0.228,-0.039 0.322,-0.118 C 16.4,7.679 16.886,7.386 17.388,7.193 17.646,7.094 17.774,6.804 17.675,6.547 17.576,6.29 17.286,6.16 17.029,6.26 16.423,6.493 15.841,6.843 15.3,7.299 c -0.211,0.178 -0.238,0.493 -0.06,0.705 0.098,0.116 0.239,0.177 0.382,0.177 z m 6.89,0.429 C 22.565,8.842 22.771,9 22.999,9 23.036,9 23.073,8.996 23.11,8.988 23.379,8.927 23.548,8.659 23.487,8.39 23.408,8.043 23.17,7.672 22.796,7.316 22.597,7.128 22.28,7.134 22.089,7.334 c -0.19,0.2 -0.183,0.517 0.018,0.707 0.259,0.246 0.379,0.456 0.405,0.569 z M 19.029,6.905 c 0.568,10e-4 1.125,0.099 1.654,0.29 0.056,0.021 0.114,0.03 0.17,0.03 0.205,0 0.397,-0.126 0.47,-0.33 0.094,-0.26 -0.041,-0.546 -0.3,-0.64 -0.639,-0.23 -1.309,-0.348 -1.992,-0.35 -0.276,0 -0.5,0.223 -0.5,0.499 0,0.276 0.221,0.5 0.498,0.501 z M 11.999,3 c 0.276,0 0.5,-0.224 0.5,-0.5 l 0,-2 c 0,-0.276 -0.224,-0.5 -0.5,-0.5 -0.276,0 -0.5,0.224 -0.5,0.5 l 0,2 c 0,0.276 0.224,0.5 0.5,0.5 z m 4.249,15.606 c 4.242,-0.81 7.251,-2.792 7.251,-5.106 0,-0.276 -0.224,-0.5 -0.5,-0.5 l -9.472,0 c 0.009,-0.146 0.007,-0.293 0.025,-0.438 0.034,-0.274 -0.16,-0.524 -0.434,-0.558 -0.273,-0.029 -0.524,0.161 -0.558,0.434 -0.023,0.185 -0.022,0.374 -0.032,0.562 l -0.029,0 0,-5.5 c 0,-0.276 -0.224,-0.5 -0.5,-0.5 -0.276,0 -0.5,0.224 -0.5,0.5 l 0,5.5 -0.028,0 c -0.01,-0.188 -0.008,-0.376 -0.032,-0.562 -0.035,-0.273 -0.286,-0.463 -0.558,-0.434 -0.274,0.034 -0.468,0.284 -0.434,0.558 0.018,0.144 0.016,0.291 0.025,0.438 L 1,13 c -0.276,0 -0.5,0.224 -0.5,0.5 0,2.315 3.009,4.296 7.251,5.106 0.078,0.361 0.25,0.699 0.411,1.006 0.173,0.329 0.337,0.641 0.337,0.888 0,0.396 -0.744,0.837 -1.341,1.191 -0.816,0.484 -1.659,0.983 -1.659,1.809 0,0.276 0.224,0.5 0.5,0.5 l 12,0 c 0.276,0 0.5,-0.224 0.5,-0.5 0,-0.826 -0.843,-1.325 -1.659,-1.809 -0.597,-0.354 -1.341,-0.795 -1.341,-1.191 0,-0.247 0.164,-0.559 0.338,-0.888 0.161,-0.307 0.333,-0.644 0.411,-1.006 z M 3.145,7.225 c 0.056,0 0.114,-0.009 0.17,-0.03 0.53,-0.191 1.086,-0.289 1.654,-0.29 0.276,0 0.5,-0.225 0.499,-0.501 C 5.467,6.128 5.244,5.905 4.968,5.905 4.284,5.906 3.614,6.024 2.975,6.255 c -0.26,0.094 -0.394,0.38 -0.3,0.64 0.074,0.203 0.266,0.33 0.47,0.33 z M 0.888,8.987 C 0.926,8.996 0.963,9 1,9 1.228,9 1.434,8.843 1.487,8.611 1.513,8.496 1.633,8.286 1.892,8.04 2.092,7.85 2.1,7.533 1.91,7.333 1.72,7.133 1.403,7.125 1.203,7.315 0.83,7.669 0.592,8.041 0.513,8.388 0.45,8.658 0.619,8.926 0.888,8.987 Z m 9.134,1.89 c 0.077,0.199 0.266,0.32 0.467,0.32 0.06,0 0.121,-0.011 0.18,-0.033 0.258,-0.099 0.386,-0.389 0.287,-0.646 C 10.718,9.899 10.407,9.312 10.032,8.772 9.874,8.545 9.563,8.489 9.336,8.647 9.109,8.804 9.053,9.116 9.211,9.343 c 0.329,0.473 0.602,0.99 0.811,1.534 z M 11.999,6 c 0.276,0 0.5,-0.224 0.5,-0.5 l 0,-1 c 0,-0.276 -0.224,-0.5 -0.5,-0.5 -0.276,0 -0.5,0.224 -0.5,0.5 l 0,1 c 0,0.276 0.224,0.5 0.5,0.5 z M 6.611,7.193 C 7.113,7.386 7.599,7.679 8.055,8.063 8.149,8.142 8.263,8.181 8.377,8.181 8.52,8.181 8.661,8.12 8.76,8.003 8.938,7.792 8.911,7.476 8.7,7.298 8.159,6.842 7.577,6.492 6.971,6.259 6.715,6.162 6.424,6.288 6.325,6.546 6.225,6.804 6.353,7.094 6.611,7.193 Z" id="path8" inkscape:connector-curvature="0"/>
</svg>